<svg width="649" height="657" viewBox="0 0 649 657" fill="none" xmlns="http://www.w3.org/2000/svg">
<path d="M270.038 70.0469C302.093 45.5428 346.359 45.5428 378.414 70.0469C379.774 71.0869 381.265 72.3184 384.246 74.7822C385.576 75.882 386.241 76.4326 386.899 76.9561C401.984 88.9583 420.48 95.7595 439.672 96.3623C440.509 96.3886 441.369 96.3993 443.088 96.4209C446.938 96.4693 448.863 96.4942 450.567 96.5811C490.712 98.6277 524.623 127.377 533.589 166.966C533.969 168.646 534.327 170.558 535.043 174.381C535.362 176.087 535.522 176.94 535.693 177.769C539.613 196.76 549.454 213.982 563.772 226.908C564.397 227.472 565.049 228.038 566.352 229.171C569.271 231.709 570.73 232.978 571.98 234.151C601.431 261.791 609.118 305.837 590.8 341.987C590.022 343.522 589.08 345.219 587.196 348.612C586.355 350.127 585.935 350.884 585.539 351.63C576.46 368.724 573.042 388.308 575.787 407.509C575.907 408.346 576.046 409.204 576.323 410.918C576.944 414.757 577.255 416.677 577.467 418.388C582.443 458.688 560.309 497.421 523.278 513.217C521.706 513.887 519.906 514.576 516.303 515.952C514.696 516.566 513.892 516.874 513.114 517.188C495.284 524.386 480.206 537.169 470.094 553.66C469.652 554.379 469.213 555.126 468.335 556.619C466.368 559.964 465.385 561.637 464.459 563.084C442.632 597.187 401.035 612.485 362.618 600.535C360.987 600.028 359.17 599.386 355.535 598.101C353.912 597.527 353.101 597.239 352.305 596.975C334.067 590.909 314.385 590.909 296.146 596.975C295.351 597.239 294.539 597.527 292.917 598.101C289.282 599.386 287.464 600.028 285.834 600.535C247.417 612.485 205.82 597.187 183.993 563.084C183.067 561.637 182.084 559.964 180.117 556.619C179.239 555.126 178.799 554.378 178.358 553.659C168.246 537.168 153.168 524.386 135.338 517.188C134.56 516.874 133.756 516.566 132.148 515.952C128.546 514.576 126.745 513.887 125.174 513.217C88.1425 497.421 66.0089 458.688 70.9851 418.388C71.1963 416.677 71.5072 414.757 72.1287 410.918C72.4061 409.204 72.5451 408.346 72.6648 407.509C75.4098 388.308 71.9919 368.724 62.9128 351.63C62.5168 350.884 62.0956 350.127 61.2546 348.612C59.3708 345.219 58.4296 343.522 57.6521 341.987C39.334 305.837 47.0207 261.791 76.4714 234.151C77.7214 232.978 79.1804 231.709 82.0994 229.171C83.4022 228.038 84.054 227.472 84.6785 226.908C98.9967 213.982 108.838 196.76 112.759 177.769C112.929 176.94 113.089 176.087 113.409 174.381C114.125 170.558 114.483 168.646 114.863 166.966C123.829 127.377 157.74 98.6277 197.885 96.5811C199.588 96.4942 201.514 96.4693 205.364 96.4209C207.083 96.3993 207.943 96.3886 208.78 96.3623C227.972 95.7595 246.467 88.9583 261.552 76.9561C262.21 76.4326 262.875 75.882 264.206 74.7822C267.186 72.3184 268.677 71.0869 270.038 70.0469ZM330.369 220.269C326.385 218.689 321.958 218.689 317.973 220.269C315.22 221.36 312.689 223.597 307.627 228.071L296.074 238.281C294.027 240.091 293.003 240.996 291.879 241.712C290.254 242.747 288.469 243.495 286.597 243.927C285.302 244.225 283.946 244.318 281.235 244.505L265.936 245.558C259.233 246.019 255.881 246.25 253.172 247.45C249.251 249.186 246.121 252.355 244.407 256.325C243.222 259.069 242.994 262.463 242.539 269.252L241.499 284.744C241.315 287.49 241.223 288.862 240.928 290.174C240.503 292.069 239.763 293.878 238.741 295.522C238.034 296.661 237.14 297.697 235.353 299.771L225.27 311.47C220.852 316.596 218.643 319.16 217.565 321.948C216.006 325.983 216.006 330.464 217.565 334.499C218.643 337.287 220.852 339.851 225.27 344.978L235.353 356.677C237.14 358.75 238.034 359.787 238.741 360.926C239.763 362.571 240.503 364.379 240.928 366.273C241.223 367.585 241.315 368.958 241.499 371.703L242.539 387.195C242.994 393.984 243.222 397.379 244.407 400.122C246.121 404.092 249.251 407.261 253.172 408.997C255.881 410.197 259.233 410.428 265.936 410.89L281.235 411.942C283.946 412.129 285.302 412.222 286.597 412.521C288.469 412.952 290.254 413.7 291.879 414.735C293.003 415.452 294.027 416.357 296.074 418.166L307.627 428.377C312.689 432.851 315.22 435.088 317.973 436.18C321.958 437.759 326.385 437.759 330.369 436.18C333.122 435.088 335.653 432.851 340.716 428.377L352.268 418.166C354.316 416.357 355.34 415.452 356.464 414.735C358.088 413.7 359.874 412.952 361.745 412.521C363.04 412.222 364.396 412.129 367.107 411.942L382.406 410.89C389.11 410.428 392.461 410.197 395.171 408.997C399.091 407.261 402.221 404.092 403.935 400.122C405.12 397.378 405.348 393.984 405.803 387.195L406.844 371.703C407.028 368.958 407.119 367.585 407.414 366.273C407.84 364.379 408.58 362.571 409.602 360.926C410.31 359.787 411.203 358.75 412.99 356.677L423.072 344.978C427.49 339.851 429.699 337.287 430.777 334.499C432.337 330.464 432.337 325.983 430.777 321.948C429.699 319.16 427.49 316.596 423.072 311.47L412.99 299.771C411.203 297.697 410.31 296.661 409.602 295.522C408.58 293.878 407.84 292.069 407.414 290.174C407.119 288.863 407.028 287.49 406.844 284.744L405.803 269.252C405.348 262.463 405.12 259.069 403.935 256.325C402.221 252.355 399.091 249.186 395.171 247.45C392.461 246.25 389.11 246.019 382.406 245.558L367.107 244.505C364.396 244.318 363.04 244.225 361.745 243.927C359.874 243.495 358.088 242.747 356.464 241.712C355.34 240.996 354.316 240.091 352.268 238.281L340.716 228.071C335.653 223.597 333.122 221.36 330.369 220.269Z" fill="#3DDC84"/>
<path d="M396.322 381.624C387.155 367.077 377.824 352.327 365.429 340.776C353.033 329.195 336.976 321.014 320.512 322.08C306.055 323.03 292.656 331.039 282.078 341.496C271.499 351.953 263.281 364.83 255.198 377.591C233.336 412.045 211.448 446.498 189.586 480.98C179.198 497.343 168.538 514.426 165.663 533.928C162.191 557.492 171.549 581.489 188.148 597.16C205.507 613.551 233.635 612.226 254.764 607.732C277.928 602.806 300.576 593.53 324.201 593.559C344.435 593.559 363.991 600.415 383.683 605.399C403.347 610.354 424.477 613.407 443.463 606.033C467.034 596.901 483.959 570.945 483.498 544.299C483.064 519.985 457.134 478.042 457.134 478.042C457.134 478.042 416.589 413.766 396.322 381.624Z" fill="#007AFF"/>
</svg>
