<svg width="108" height="108" viewBox="0 0 108 108" fill="none" xmlns="http://www.w3.org/2000/svg">
<path d="M55 26.7321C67.7025 26.7321 78 37.0296 78 49.7321V59.2683C77.9998 71.9706 67.7024 82.2683 55 82.2683H42C37.5819 82.2683 34.0002 78.6864 34 74.2683V34.7321C34 30.3139 37.5817 26.7321 42 26.7321H55Z" stroke="white" stroke-width="6" stroke-linejoin="round"/>
<mask id="mask0_1_6" style="mask-type:alpha" maskUnits="userSpaceOnUse" x="37" y="29" width="38" height="51">
<path d="M37 34.7321C37 31.9707 39.2386 29.7321 42 29.7321H55C66.0457 29.7321 75 38.6865 75 49.7321V59.2679C75 70.3136 66.0457 79.2679 55 79.2679H42C39.2386 79.2679 37 77.0293 37 74.2679V34.7321Z" fill="#D9D9D9"/>
</mask>
<g mask="url(#mask0_1_6)">
<path d="M82.9427 29.7606C81.4222 34.5955 79.2496 40.7544 77.3948 45.0975C77.0252 45.9629 76.6711 46.747 76.3421 47.4286C75.8032 44.1555 73.9368 41.9337 71.6751 40.535C69.1202 38.955 66.0974 38.4328 63.9388 38.412C63.7701 35.6313 62.6111 33.1253 60.9524 31.3016C59.8675 30.1088 58.5231 29.1646 57.054 28.6532L60.0901 23.6668L82.9427 29.7606Z" stroke="white" stroke-width="3"/>
<path d="M82.9417 79.2502C81.4359 74.4719 79.3401 68.5994 77.5257 64.4075C77.0859 63.3915 76.6746 62.5099 76.3079 61.7795C75.7276 64.9449 73.8911 67.1054 71.6751 68.4758C69.1202 70.0558 66.0974 70.578 63.9388 70.5989C63.7701 73.3796 62.6111 75.8855 60.9524 77.7092C59.8675 78.902 58.5231 79.8462 57.054 80.3577L60.0901 85.344L82.9417 79.2502Z" stroke="white" stroke-width="3"/>
</g>
</svg>
