<svg width="192" height="192" viewBox="0 0 192 192" fill="none" xmlns="http://www.w3.org/2000/svg">
<style>
  .logo-path { fill: #226655; transition: fill 0.3s ease; }
  @media (prefers-color-scheme: dark) {
    .logo-path { fill: #4affbd; }
  }
</style>
<g clip-path="url(#clip0_2355_2573)">
<g clip-path="url(#clip1_2355_2573)">
<path class="logo-path" d="M133.931 39.525C139.219 42.5782 141.661 48.8429 139.748 54.453L138.898 56.9475C135.555 66.7532 141.911 77.4308 152.34 79.5312L154.995 80.0661C160.961 81.2679 165.335 86.4515 165.415 92.418L165.537 101.431C165.618 107.398 161.383 112.467 155.446 113.51L152.806 113.974C142.429 115.797 136.36 126.31 139.969 136.208L140.887 138.726C142.952 144.389 140.68 150.591 135.472 153.505L127.606 157.906C122.398 160.819 115.723 159.624 111.698 155.057L109.909 153.026C102.875 145.043 90.4497 144.878 83.6287 152.676L81.8935 154.66C77.9913 159.122 71.3453 160.14 66.057 157.087L58.069 152.475C52.7807 149.421 50.3395 143.157 52.2516 137.547L53.1028 135.051C56.4449 125.245 50.0893 114.568 39.6594 112.468L37.0065 111.933C31.0391 110.732 26.6661 105.548 26.5853 99.5808L26.4633 90.569C26.3827 84.602 30.6171 79.5328 36.5538 78.4894L39.1943 78.0256C49.5711 76.2016 55.6401 65.6898 52.0309 55.7918L51.1126 53.2729C49.0479 47.6099 51.3205 41.4084 56.5284 38.4948L64.3944 34.094C69.6022 31.1804 76.2778 32.3757 80.3021 36.9425L82.0919 38.9735C89.1256 46.9554 101.55 47.121 108.371 39.3236L110.107 37.3389C114.009 32.8778 120.654 31.8596 125.943 34.9131L133.931 39.525ZM137.543 105.875C143.002 82.9346 128.83 59.9117 105.889 54.4523C82.9483 48.993 59.9251 63.1647 54.4658 86.1057C49.0067 109.047 63.1784 132.07 86.1194 137.529C109.06 142.988 132.084 128.816 137.543 105.875Z" fill-opacity="0.1"/>
</g>
<g clip-path="url(#clip2_2355_2573)">
<path class="logo-path" d="M127.82 35.8696C133.399 38.3533 136.482 44.3285 135.166 50.1077L134.581 52.6775C132.281 62.7789 139.718 72.7337 150.31 73.7325L153.006 73.9869C159.066 74.5584 163.957 79.2565 164.66 85.182L165.724 94.1324C166.428 100.058 162.746 105.542 156.951 107.2L154.374 107.938C144.244 110.836 139.307 121.925 143.931 131.392L145.108 133.8C147.753 139.217 146.141 145.622 141.267 149.064L133.904 154.263C129.029 157.705 122.265 157.214 117.785 153.093L115.793 151.26C107.964 144.056 95.5894 145.191 89.6209 153.659L88.1026 155.814C84.6881 160.658 78.1849 162.366 72.6065 159.882L64.1801 156.13C58.6016 153.647 55.519 147.671 56.8343 141.893L57.4198 139.321C59.7186 129.22 52.2818 119.265 41.6895 118.267L38.9952 118.012C32.9349 117.441 28.0441 112.743 27.34 106.817L26.2767 97.8674C25.5728 91.9415 29.2541 86.4575 35.0493 84.7992L37.6268 84.062C47.756 81.1633 52.693 70.0747 48.069 60.6082L46.8924 58.1991C44.247 52.7829 45.859 46.3779 50.7338 42.9358L58.0967 37.737C62.9715 34.2949 69.7354 34.7859 74.2151 38.907L76.2073 40.7398C84.0369 47.9428 96.4106 46.8088 102.379 38.3411L103.898 36.1858C107.313 31.3413 113.815 29.6341 119.394 32.118L127.82 35.8696ZM138.348 101.479C141.379 78.0932 124.878 56.6778 101.492 53.6463C78.1064 50.6149 56.6906 67.1155 53.6592 90.5015C50.628 113.888 67.1286 135.303 90.5146 138.334C113.901 141.366 135.316 124.865 138.348 101.479Z" fill-opacity="0.2"/>
</g>
<g clip-path="url(#clip3_2355_2573)">
<path class="logo-path" d="M121.361 32.8729C127.168 34.7599 130.859 40.3801 130.155 46.2652L129.841 48.8821C128.61 59.1684 137.047 68.2913 147.685 68.1775L150.393 68.1487C156.479 68.0837 161.835 72.2448 163.154 78.0643L165.147 86.8546C166.466 92.6744 163.378 98.5131 157.788 100.768L155.302 101.771C145.531 105.712 141.78 117.256 147.369 126.188L148.79 128.46C151.987 133.57 151.054 140.109 146.566 144.042L139.787 149.982C135.298 153.915 128.52 154.133 123.634 150.503L121.461 148.888C112.922 142.542 100.734 144.964 95.6832 154.01L94.3984 156.311C91.509 161.487 85.2199 163.864 79.4124 161.977L70.64 159.127C64.8325 157.24 61.1422 151.62 61.8462 145.735L62.1597 143.116C63.3901 132.83 54.9534 123.707 44.3149 123.822L41.6087 123.851C35.522 123.916 30.1668 119.755 28.8472 113.935L26.8541 105.145C25.5346 99.3254 28.6226 93.4866 34.2127 91.2317L36.699 90.2291C46.4698 86.2875 50.2206 74.7435 44.6325 65.8123L43.2104 63.5394C40.0134 58.4293 40.9471 51.8909 45.4354 47.9582L52.2145 42.0181C56.7028 38.0854 63.481 37.8666 68.3669 41.4969L70.5398 43.1114C79.0794 49.4565 91.2668 47.0353 96.3173 37.9902L97.6027 35.6879C100.492 30.513 106.781 28.1355 112.589 30.0226L121.361 32.8729ZM138.689 97.0225C139.259 73.4479 120.61 53.8746 97.0354 53.3042C73.4607 52.7339 53.887 71.3827 53.3167 94.9575C52.7466 118.532 71.3954 138.106 94.9701 138.676C118.545 139.246 138.118 120.597 138.689 97.0225Z" fill-opacity="0.3"/>
</g>
<g clip-path="url(#clip4_2355_2573)">
<path class="logo-path" d="M114.623 30.5678C120.596 31.8374 124.854 37.041 124.768 42.9675L124.73 45.6028C124.581 55.9615 133.925 64.1525 144.493 62.9273L147.183 62.6156C153.229 61.9147 158.99 65.4933 160.91 71.143L163.811 79.6768C165.732 85.3269 163.271 91.4564 157.947 94.2831L155.58 95.5403C146.274 100.481 143.75 112.355 150.242 120.653L151.894 122.764C155.607 127.512 155.362 134.113 151.31 138.493L145.189 145.109C141.136 149.489 134.418 150.415 129.179 147.316L126.85 145.937C117.693 140.519 105.825 144.201 101.748 153.725L100.711 156.148C98.3782 161.597 92.3721 164.619 86.3992 163.35L77.3769 161.432C71.404 160.162 67.1464 154.959 67.2315 149.033L67.2695 146.395C67.418 136.037 58.0739 127.846 47.5056 129.072L44.8173 129.383C38.7707 130.085 33.0099 126.506 31.0891 120.856L28.1883 112.323C26.2677 106.673 28.7284 100.543 34.0521 97.7163L36.42 96.4593C45.7253 91.518 48.2489 79.6452 41.7578 71.347L40.106 69.2352C36.3924 64.4873 36.6374 57.8871 40.69 53.5067L46.8111 46.8906C50.8637 42.5103 57.5819 41.5842 62.8205 44.6839L65.1503 46.0625C74.3064 51.4801 86.1739 47.7983 90.2513 38.2748L91.289 35.8508C93.6217 30.4022 99.6271 27.3803 105.601 28.65L114.623 30.5678ZM138.561 92.5547C136.664 69.0497 116.071 51.5329 92.5662 53.4298C69.061 55.3269 51.5439 75.9195 53.441 99.4248C55.3383 122.93 75.9308 140.447 99.436 138.55C122.941 136.653 140.458 116.06 138.561 92.5547Z" fill-opacity="0.4"/>
</g>
<g clip-path="url(#clip5_2355_2573)">
<path class="logo-path" d="M107.682 28.9796C113.755 29.6179 118.533 34.348 119.068 40.2509L119.305 42.8757C120.24 53.1933 130.389 60.3627 140.771 58.0396L143.414 57.4484C149.353 56.1194 155.457 59.0762 157.957 64.4942L161.734 72.678C164.235 78.0964 162.428 84.4495 157.429 87.8173L155.206 89.315C146.468 95.2015 145.199 107.274 152.522 114.848L154.385 116.775C158.575 121.109 159.021 127.699 155.449 132.479L150.053 139.698C146.481 144.478 139.896 146.102 134.362 143.566L131.901 142.439C122.228 138.007 110.81 142.91 107.751 152.808L106.973 155.327C105.222 160.989 99.565 164.623 93.4921 163.984L84.3188 163.02C78.2458 162.382 73.4677 157.652 72.9328 151.749L72.695 149.123C71.7599 138.806 61.6108 131.636 51.2285 133.96L48.5875 134.551C42.6474 135.88 36.544 132.923 34.0432 127.505L30.2663 119.322C27.7656 113.903 29.5722 107.55 34.5712 104.182L36.7947 102.685C45.5325 96.7977 46.8013 84.7262 39.4783 77.1519L37.6148 75.2243C33.4253 70.8906 32.9791 64.301 36.5516 59.521L41.9476 52.3013C45.5201 47.5213 52.1047 45.8981 57.6386 48.4333L60.0997 49.5607C69.7719 53.9916 81.1897 49.0894 84.2492 39.1919L85.0279 36.6727C86.7783 31.0101 92.4349 27.3771 98.5083 28.0155L107.682 28.9796ZM137.968 88.1247C133.624 64.9468 111.314 49.6785 88.1356 54.022C64.9575 58.3656 49.6888 80.6765 54.0325 103.855C58.3763 127.033 80.687 142.301 103.865 137.957C127.043 133.614 142.312 111.303 137.968 88.1247Z" fill-opacity="0.5"/>
</g>
<path class="logo-path" d="M100.612 28.1257C106.718 28.1258 111.965 32.3304 113.114 38.1452L113.624 40.7307C115.632 50.894 126.475 56.9634 136.557 53.5678L139.124 52.7035C144.892 50.7609 151.271 53.0635 154.324 58.1906L158.936 65.9348C161.989 71.062 160.856 77.5693 156.237 81.4411L154.182 83.163C146.107 89.9306 146.107 102.069 154.182 108.837L156.237 110.559C160.856 114.431 161.989 120.938 158.936 126.065L154.325 133.809C151.271 138.936 144.892 141.239 139.123 139.296L136.558 138.432C126.475 135.035 115.632 141.105 113.624 151.269L113.114 153.855C111.965 159.669 106.718 163.874 100.612 163.874H91.388C85.2816 163.874 80.0352 159.669 78.8863 153.855L78.375 151.268C76.3668 141.105 65.5237 135.035 55.4413 138.432L52.8766 139.295C47.108 141.239 40.7289 138.936 37.6755 133.808L33.0639 126.065C30.0105 120.938 31.1431 114.431 35.7627 110.559L37.8175 108.837C45.8919 102.069 45.8919 89.9306 37.8175 83.1633L35.7627 81.4411C31.1431 77.5691 30.0105 71.0622 33.0639 65.9349L37.6756 58.1908C40.729 53.0635 47.1078 50.7609 52.8764 52.7037L55.4417 53.5678C65.5241 56.9634 76.3668 50.8946 78.375 40.7314L78.8863 38.1447C80.0352 32.3301 85.2811 28.1257 91.388 28.1257H100.612ZM105.323 58.7052C99.5553 57.2631 93.493 57.1693 87.6167 58.4825C78.9908 60.4103 71.2928 65.2523 65.8201 72.1928C60.3473 79.1332 57.4342 87.7479 57.5712 96.5855C57.7082 105.423 60.887 113.944 66.5722 120.711C72.2575 127.479 80.1018 132.08 88.7834 133.739C97.4647 135.398 106.453 134.015 114.234 129.821C122.014 125.628 128.111 118.881 131.498 110.717C133.805 105.155 134.758 99.1673 134.333 93.2376C134.001 88.616 129.228 86.0749 124.787 87.3997C120.347 88.7246 118 93.486 117.549 98.0974C117.343 100.211 116.825 102.297 115.999 104.287C114.091 108.887 110.656 112.688 106.273 115.051C101.889 117.413 96.8248 118.193 91.9336 117.258C90.2151 116.929 88.5547 116.396 86.9848 115.677C84.9511 114.746 85.3664 112.027 87.4851 111.31L92.0914 109.751C92.34 109.705 92.587 109.641 92.8311 109.562L96.0639 108.502L99.2797 107.391C101.213 106.724 102.653 105.09 103.074 103.088L103.773 99.7584L104.419 96.4185C104.807 94.4103 104.113 92.3454 102.589 90.9805L100.055 88.7105L97.4855 86.481C95.9405 85.1405 93.805 84.71 91.8613 85.3469L89.0283 86.2753C88.5283 86.3738 88.029 86.5062 87.5331 86.6741L79.7849 89.2954C77.6822 90.0068 75.7018 88.1282 76.7104 86.1508C77.35 84.897 78.1141 83.7012 78.9961 82.5826C82.0795 78.6722 86.4166 75.9442 91.2764 74.858C93.3785 74.3882 95.523 74.238 97.6403 74.3989C102.261 74.7501 107.355 73.2595 109.426 69.1146C111.497 64.9697 109.818 59.8293 105.323 58.7052Z" />
</g>
<defs>
<clipPath id="clip0_2355_2573">
<rect width="192" height="192" fill="white"/>
</clipPath>
<clipPath id="clip1_2355_2573">
<rect width="141.037" height="141.037" fill="white" transform="translate(70.1885 -0.3302) rotate(30)"/>
</clipPath>
<clipPath id="clip2_2355_2573">
<rect width="141.037" height="141.037" fill="white" transform="translate(60.2607 2.89563) rotate(24)"/>
</clipPath>
<clipPath id="clip3_2355_2573">
<rect width="141.037" height="141.037" fill="white" transform="translate(50.7246 7.14148) rotate(18)"/>
</clipPath>
<clipPath id="clip4_2355_2573">
<rect width="141.037" height="141.037" fill="white" transform="translate(41.6841 12.3608) rotate(12)"/>
</clipPath>
<clipPath id="clip5_2355_2573">
<rect width="141.037" height="141.037" fill="white" transform="translate(33.2393 18.4966) rotate(6)"/>
</clipPath>
</defs>
</svg>
